<?xml version="1.0" encoding="UTF-8" standalone="no"?>
<!DOCTYPE svg PUBLIC "-//W3C//DTD SVG 1.1//EN" "http://www.w3.org/Graphics/SVG/1.1/DTD/svg11.dtd">
<svg width="100%" height="100%" viewBox="0 0 512 512" version="1.1" xmlns="http://www.w3.org/2000/svg" xmlns:xlink="http://www.w3.org/1999/xlink" xml:space="preserve" xmlns:serif="http://www.serif.com/" style="fill-rule:evenodd;clip-rule:evenodd;stroke-linecap:round;stroke-linejoin:round;stroke-miterlimit:1.5;">
    <g transform="matrix(1,0,0,1,-1170.11,-624.132)">
        <g id="Favicon--bg" serif:id="Favicon  bg" transform="matrix(1,0,0,1,1170.11,624.132)">
            <rect x="0" y="0" width="512" height="512"/>
            <clipPath id="_clip1">
                <rect x="0" y="0" width="512" height="512"/>
            </clipPath>
            <g clip-path="url(#_clip1)">
                <g transform="matrix(1,0,0,1,-1170.11,-624.132)">
                    <rect x="1050.11" y="584.132" width="660" height="740" style="stroke:white;stroke-width:1px;"/>
                </g>
                <g transform="matrix(7.15677,0,0,7.15677,-5174.14,-573.507)">
                    <g>
                        <g>
                            <g transform="matrix(0.487163,0,0,0.487163,504.767,-37.7553)">
                                <path d="M508.972,339.524C503.177,339.524 497.816,338.571 492.889,336.663C487.962,334.756 483.688,332.055 480.066,328.559C476.444,325.064 473.621,320.952 471.596,316.224C469.571,311.495 468.559,306.31 468.559,300.668C468.559,295.026 469.571,289.84 471.596,285.112C473.621,280.384 476.46,276.272 480.113,272.776C483.766,269.281 488.057,266.58 492.983,264.672C497.91,262.765 503.271,261.811 509.067,261.811C515.227,261.811 520.871,262.872 525.997,264.993C531.124,267.114 535.433,270.246 538.925,274.389L529.888,283.013C527.155,280.018 524.095,277.778 520.706,276.294C517.318,274.809 513.65,274.067 509.704,274.067C505.787,274.067 502.185,274.718 498.898,276.02C495.611,277.323 492.755,279.162 490.33,281.537C487.905,283.913 486.026,286.725 484.692,289.973C483.358,293.221 482.692,296.786 482.692,300.668C482.692,304.55 483.358,308.115 484.692,311.363C486.026,314.611 487.905,317.423 490.33,319.798C492.755,322.174 495.611,324.013 498.898,325.315C502.185,326.618 505.787,327.269 509.704,327.269C513.65,327.269 517.318,326.527 520.706,325.042C524.095,323.558 527.155,321.287 529.888,318.229L538.925,326.854C535.433,330.987 531.124,334.132 525.997,336.289C520.871,338.446 515.196,339.524 508.972,339.524Z" style="fill:white;fill-rule:nonzero;"/>
                            </g>
                            <g transform="matrix(-0.487163,0,0,0.487163,1012.72,-23.3831)">
                                <path d="M508.972,339.524C503.177,339.524 497.816,338.571 492.889,336.663C487.962,334.756 483.688,332.055 480.066,328.559C476.444,325.064 473.621,320.952 471.596,316.224C469.571,311.495 468.559,306.31 468.559,300.668C468.559,295.026 469.571,289.84 471.596,285.112C473.621,280.384 476.46,276.272 480.113,272.776C483.766,269.281 488.057,266.58 492.983,264.672C497.91,262.765 503.271,261.811 509.067,261.811C515.227,261.811 520.871,262.872 525.997,264.993C531.124,267.114 535.433,270.246 538.925,274.389L529.888,283.013C527.155,280.018 524.095,277.778 520.706,276.294C517.318,274.809 513.65,274.067 509.704,274.067C505.787,274.067 502.185,274.718 498.898,276.02C495.611,277.323 492.755,279.162 490.33,281.537C487.905,283.913 486.026,286.725 484.692,289.973C483.358,293.221 482.692,296.786 482.692,300.668C482.692,304.55 483.358,308.115 484.692,311.363C486.026,314.611 487.905,317.423 490.33,319.798C492.755,322.174 495.611,324.013 498.898,325.315C502.185,326.618 505.787,327.269 509.704,327.269C513.65,327.269 517.318,326.527 520.706,325.042C524.095,323.558 527.155,321.287 529.888,318.229L538.925,326.854C535.433,330.987 531.124,334.132 525.997,336.289C520.871,338.446 515.196,339.524 508.972,339.524Z" style="fill:white;fill-rule:nonzero;"/>
                            </g>
                        </g>
                    </g>
                </g>
            </g>
        </g>
    </g>
</svg>
